<svg width="320" height="80" viewBox="0 0 320 80" fill="none" xmlns="http://www.w3.org/2000/svg">
<path fill-rule="evenodd" clip-rule="evenodd" d="M123.645 19.4953C121.476 15.7384 116.672 14.4512 112.915 16.6203L83.7621 33.4519C80.0052 35.6209 78.718 40.4248 80.887 44.1817C83.0561 47.9386 87.86 49.2258 91.6168 47.0568L120.77 30.2251C124.527 28.0561 125.814 23.2522 123.645 19.4953Z" fill="#0795B0" stroke="#08ADCC" stroke-width="2.12462" stroke-linecap="round"/>
<path fill-rule="evenodd" clip-rule="evenodd" d="M123.625 61.0135C121.456 64.7704 116.652 66.0576 112.895 63.8885L83.7421 47.0569C79.9852 44.8878 78.698 40.0839 80.867 36.3271C83.036 32.5702 87.8399 31.283 91.5968 33.452L120.75 50.2837C124.507 52.4527 125.794 57.2566 123.625 61.0135Z" fill="#00CED1" stroke="#00E7EB" stroke-width="2.12462" stroke-linecap="round"/>
<path d="M155.024 56.8043C151.878 56.8043 149.159 56.1169 146.868 54.7422C144.576 53.3369 142.805 51.397 141.552 48.9225C140.33 46.4174 139.719 43.5152 139.719 40.2158C139.719 36.9165 140.33 34.0295 141.552 31.555C142.805 29.0499 144.576 27.11 146.868 25.7353C149.159 24.33 151.878 23.6274 155.024 23.6274C158.721 23.6274 161.715 24.4981 164.006 26.2394C166.297 27.9807 167.764 30.44 168.405 33.6171H164.144C163.655 31.6314 162.662 30.0428 161.165 28.8514C159.668 27.6599 157.621 27.0642 155.024 27.0642C152.733 27.0642 150.732 27.5988 149.021 28.6681C147.311 29.7068 145.982 31.219 145.035 33.2047C144.118 35.1599 143.66 37.4969 143.66 40.2158C143.66 42.9348 144.118 45.2871 145.035 47.2728C145.982 49.228 147.311 50.7402 149.021 51.8094C150.732 52.8481 152.733 53.3675 155.024 53.3675C157.621 53.3675 159.683 52.787 161.211 51.6261C162.769 50.4347 163.792 48.8767 164.281 46.952H168.405C167.764 50.0375 166.297 52.451 164.006 54.1923C161.715 55.9336 158.721 56.8043 155.024 56.8043ZM171.168 56.2544V24.1773H175.017V56.2544H171.168ZM185.686 56.8043C183.884 56.8043 182.372 56.4835 181.15 55.842C179.928 55.2004 179.011 54.345 178.4 53.2758C177.82 52.2066 177.53 51.0457 177.53 49.7931C177.53 48.2351 177.927 46.9215 178.721 45.8522C179.546 44.783 180.692 43.9734 182.158 43.4235C183.655 42.8431 185.411 42.5529 187.428 42.5529H193.568C193.568 41.056 193.339 39.8187 192.881 38.8411C192.423 37.8635 191.766 37.1456 190.91 36.6874C190.055 36.1986 189.032 35.9542 187.84 35.9542C186.343 35.9542 185.045 36.336 183.945 37.0998C182.845 37.8635 182.173 39.0397 181.929 40.6283H177.988C178.171 38.9786 178.706 37.5886 179.592 36.4582C180.508 35.3279 181.669 34.4725 183.074 33.8921C184.51 33.2811 186.099 32.9756 187.84 32.9756C190.009 32.9756 191.796 33.3727 193.202 34.167C194.637 34.9308 195.691 36.0153 196.363 37.4205C197.066 38.7953 197.417 40.4144 197.417 42.2779V56.2544H194.21L193.843 52.3593H193.66C193.232 53.0925 192.728 53.734 192.148 54.2839C191.598 54.8338 190.987 55.2921 190.315 55.6587C189.643 56.0253 188.909 56.3002 188.115 56.4835C187.351 56.6974 186.542 56.8043 185.686 56.8043ZM186.374 53.5508C187.535 53.5508 188.558 53.3369 189.444 52.9092C190.33 52.451 191.078 51.84 191.689 51.0762C192.3 50.3125 192.759 49.4571 193.064 48.5101C193.4 47.5325 193.568 46.5396 193.568 45.5315H187.748C186.252 45.5315 185.045 45.7148 184.128 46.0814C183.212 46.4174 182.555 46.8909 182.158 47.5019C181.761 48.1129 181.562 48.8156 181.562 49.6098C181.562 50.4041 181.745 51.1068 182.112 51.7178C182.509 52.2982 183.059 52.7565 183.762 53.0925C184.495 53.398 185.366 53.5508 186.374 53.5508ZM206.492 56.2544L198.335 33.5255H202.368L208.875 53.1842H209.058L215.611 33.5255H219.552L211.395 56.2544H206.492ZM231.175 56.8043C229.006 56.8043 227.082 56.3155 225.401 55.3379C223.721 54.3298 222.392 52.9398 221.415 51.1679C220.468 49.3655 219.994 47.2728 219.994 44.8899C219.994 42.4765 220.468 40.3839 221.415 38.612C222.362 36.8401 223.675 35.4654 225.356 34.4878C227.066 33.4796 229.037 32.9756 231.267 32.9756C233.497 32.9756 235.407 33.4796 236.995 34.4878C238.584 35.4654 239.806 36.7637 240.661 38.3829C241.516 39.9714 241.944 41.7128 241.944 43.6068C241.944 43.9123 241.944 44.2484 241.944 44.615C241.944 44.951 241.929 45.3329 241.898 45.7606H222.881V42.782H238.141C238.049 40.613 237.346 38.9328 236.033 37.7413C234.75 36.5499 233.131 35.9542 231.175 35.9542C229.862 35.9542 228.64 36.2444 227.509 36.8248C226.379 37.4053 225.463 38.2759 224.76 39.4368C224.088 40.5977 223.752 42.0641 223.752 43.836V45.1191C223.752 47.0131 224.103 48.5864 224.806 49.839C225.508 51.0915 226.425 52.0385 227.555 52.6801C228.716 53.2911 229.923 53.5966 231.175 53.5966C232.764 53.5966 234.093 53.23 235.162 52.4968C236.231 51.7636 237.01 50.7555 237.499 49.4724H241.303C240.905 50.8777 240.249 52.1302 239.332 53.23C238.416 54.3298 237.27 55.2004 235.895 55.842C234.551 56.4835 232.978 56.8043 231.175 56.8043Z" fill="white"/>
</svg>
